<?xml version="1.0" encoding="UTF-8"?><svg id="linkedin" xmlns="http://www.w3.org/2000/svg" viewBox="0 0 2490.13 1422"><defs><style>.cls-1{fill:#fafafe;fill-rule:evenodd;}</style></defs><path class="cls-1" d="m1890.06,438.53C1783.79,187.29,1535.02,11,1245.07,11c-96.65,0-188.72,19.59-272.47,55.01-251.24,106.27-427.53,355.04-427.53,644.99,0,96.65,19.59,188.72,55.01,272.47,106.27,251.24,355.04,427.53,644.99,427.53,386.6,0,700-313.4,700-700,0-96.65-19.59-188.72-55.01-272.47Zm-859.68,680.8h-176.65v-570.37h176.65v570.37Zm-89.18-645.05c-57.7,0-104.46-47.13-104.46-105.25s46.76-105.25,104.46-105.25,104.44,47.13,104.44,105.25-46.73,105.25-104.44,105.25Zm751.09,645.05h-175.79v-299.41c0-82.09-31.19-127.96-96.16-127.96-70.69,0-107.62,47.74-107.62,127.96v299.41h-169.41v-570.37h169.41v76.83s50.94-94.25,171.98-94.25,207.59,73.88,207.59,226.67v361.12Z"/></svg>